<svg xmlns="http://www.w3.org/2000/svg" viewBox="0 0 102.4 102.4"><defs><style>.cls-1{fill:#3581b9;}</style></defs><title>icon_area_industrial</title><g id="Layer_2" data-name="Layer 2"><g id="Layer_1-2" data-name="Layer 1"><path class="cls-1" d="M9.33,67.53V85a2,2,0,0,0,2,2H61.39a2,2,0,0,0,2-2V67.53a2,2,0,0,0-2-2H11.31A2,2,0,0,0,9.33,67.53Zm50.08,2V83.05H40.61L54.16,69.5Zm-46.13,0h18.8L25,76.63a2,2,0,0,0,0,2.79,2,2,0,0,0,2.79,0l9.92-9.92H48.58L35,83.05H13.28Z"/><path class="cls-1" d="M79.79,1.88,78,39.42a2,2,0,0,0,3.94.19L83.64,3.95H93.88L96,49.1A2,2,0,0,0,98,51h.1A2,2,0,0,0,100,48.92l-2.23-47a2,2,0,0,0-2-1.88h-14A2,2,0,0,0,79.79,1.88Z"/><path class="cls-1" d="M101.34,56.45,52.12,30.56a2,2,0,0,0-2.89,1.75V42L27.51,30.56a2,2,0,0,0-2.9,1.75V42L2.89,30.56A2,2,0,0,0,0,32.3v68.12a2,2,0,0,0,2,2h98.45a2,2,0,0,0,2-2V58.2A2,2,0,0,0,101.34,56.45Zm-12.22,42H72.69V69.5H89.12Zm9.33,0H93.07V67.53a2,2,0,0,0-2-2H70.72a2,2,0,0,0-2,2V98.45H3.95V35.57L25.67,47a2,2,0,0,0,2.89-1.75V35.57L50.28,47a2,2,0,0,0,2.89-1.75V35.57l.53.28L98.45,59.39Z"/></g></g></svg>