<?xml version="1.0" encoding="utf-8"?>
<!-- Generator: Adobe Illustrator 21.0.0, SVG Export Plug-In . SVG Version: 6.00 Build 0)  -->
<svg version="1.1" id="Layer_1" xmlns="http://www.w3.org/2000/svg" xmlns:xlink="http://www.w3.org/1999/xlink" x="0px" y="0px"
	 viewBox="0 0 129.7 102.6" style="enable-background:new 0 0 129.7 102.6;" xml:space="preserve">
<style type="text/css">
	.st0{clip-path:url(#SVGID_2_);}
	.st1{fill:#FFFFFF;}
</style>
<title>icon_area_salud</title>
<g id="Layer_2">
	<g id="Layer_1-2">
		<g>
			<defs>
				<rect id="SVGID_1_" width="129.7" height="110.1"/>
			</defs>
			<clipPath id="SVGID_2_">
				<use xlink:href="#SVGID_1_"  style="overflow:visible;"/>
			</clipPath>
			<g class="st0">
				<path class="st1" d="M127.9,45.7c1.2-3.5,1.8-7.1,1.8-10.8c0-12.8-7-24.5-18.1-30.7c-13.3-7.1-29.7-5-40.8,5.2
					C59.5-0.8,43.2-2.9,29.8,4.2c-11.2,6.1-18.1,17.9-18.2,30.7c0,3.6,0.6,7.1,1.7,10.5c0.5,1.9,1.1,3.8,1.9,5.6H3.9
					c-2.1,0-3.9,1.7-3.9,3.9c0,2.1,1.7,3.9,3.9,3.9H49c1.6,0,3-0.9,3.6-2.4l4.1-9.5l5.2,22c0.4,1.5,1.6,2.6,3.1,2.9
					c0.2,0,0.4,0,0.6,0c1.3,0,2.6-0.7,3.3-1.9L80,51.6h11.8c2.1,0,3.9-1.7,3.9-3.9c0-2.1-1.7-3.9-3.9-3.9h-14
					c-1.4,0-2.6,0.7-3.3,1.9l-7.4,12.1l-5.7-24.1c-0.5-2.1-2.6-3.3-4.7-2.8c-1.2,0.3-2.1,1.1-2.6,2.2l-7.7,17.8H23.8
					c-1.4-2.4-2.4-5-3.1-7.7c-0.9-2.7-1.3-5.5-1.3-8.4c0-9.9,5.4-19.1,14.1-23.9C45,4.9,59.2,7.6,67.7,17.4c1.5,1.7,4,1.8,5.6,0.4
					c0.1-0.1,0.2-0.2,0.4-0.4c8.2-9.8,23-12.7,34.2-6.5c8.7,4.8,14.1,14,14.1,23.9c0,3-0.5,5.9-1.5,8.8
					C116.6,61.1,85,84.9,70.7,94.2c-8.6-5.7-16.8-11.8-24.6-18.5c-1.6-1.4-4.1-1.2-5.5,0.5c-1.4,1.6-1.2,4,0.4,5.4
					C49.7,89,58.9,95.8,68.6,102c0.6,0.4,1.3,0.6,2.1,0.6c0.7,0,1.5-0.2,2.1-0.6C74.8,100.7,122.4,70.6,127.9,45.7z"/>
			</g>
		</g>
	</g>
</g>
</svg>
