<svg xmlns="http://www.w3.org/2000/svg" xmlns:xlink="http://www.w3.org/1999/xlink" viewBox="0 0 129.69 102.61"><defs><style>.cls-1{fill:none;}.cls-2{clip-path:url(#clip-path);}.cls-3{fill:#fff;}</style><clipPath id="clip-path" transform="translate(0 -0.01)"><rect class="cls-1" width="134.5" height="106.29"/></clipPath></defs><title>icon_area_salud</title><g id="Layer_2" data-name="Layer 2"><g id="Layer_1-2" data-name="Layer 1"><g class="cls-2"><path class="cls-3" d="M127.91,45.67a34,34,0,0,0,1.78-10.83A35,35,0,0,0,111.54,4.19,35.74,35.74,0,0,0,70.69,9.36,35.78,35.78,0,0,0,29.82,4.19,35,35,0,0,0,11.66,34.84,33.34,33.34,0,0,0,13.32,45.3a33.7,33.7,0,0,0,1.88,5.59H3.85a3.87,3.87,0,0,0,0,7.74H49a3.87,3.87,0,0,0,3.56-2.35l4.11-9.47,5.21,22A3.83,3.83,0,0,0,65,71.68a3,3,0,0,0,.6,0,3.84,3.84,0,0,0,3.29-1.85L80,51.6H91.83a3.87,3.87,0,0,0,0-7.74h-14a3.88,3.88,0,0,0-3.32,1.89L67.15,57.83,61.44,33.7a3.88,3.88,0,0,0-7.31-.64L46.39,50.88H23.82a30.24,30.24,0,0,1-3.06-7.66,26.69,26.69,0,0,1-1.35-8.38,27.3,27.3,0,0,1,14.12-23.9,27.9,27.9,0,0,1,34.16,6.49,4,4,0,0,0,6,0c8.16-9.78,23-12.65,34.16-6.45a27.25,27.25,0,0,1,14.12,23.9,27.59,27.59,0,0,1-1.47,8.75C116.59,61.11,85,84.85,70.69,94.17A259.18,259.18,0,0,1,46.05,75.68a3.93,3.93,0,0,0-5.48.45A3.89,3.89,0,0,0,41,81.57,257.31,257.31,0,0,0,68.58,102a3.76,3.76,0,0,0,2.07.6,3.68,3.68,0,0,0,2.08-.6C74.77,100.74,122.41,70.58,127.91,45.67Z" transform="translate(0 -0.01)"/></g></g></g></svg>