<?xml version="1.0" encoding="utf-8"?>
<!-- Generator: Adobe Illustrator 21.0.0, SVG Export Plug-In . SVG Version: 6.00 Build 0)  -->
<svg version="1.1" id="Layer_1" xmlns="http://www.w3.org/2000/svg" xmlns:xlink="http://www.w3.org/1999/xlink" x="0px" y="0px"
	 viewBox="0 0 102.4 102.4" style="enable-background:new 0 0 102.4 102.4;" xml:space="preserve">
<style type="text/css">
	.st0{fill:#FFFFFF;}
</style>
<title>icon_area_industrial</title>
<g id="Layer_2">
	<g id="Layer_1-2">
		<path class="st0" d="M9.3,67.5V85c0,1.1,0.9,2,2,2h50.1c1.1,0,2-0.9,2-2V67.5c0-1.1-0.9-2-2-2H11.3C10.2,65.5,9.3,66.4,9.3,67.5z
			 M59.4,69.5v13.5H40.6l13.5-13.6L59.4,69.5z M13.3,69.5h18.8L25,76.6c-0.8,0.8-0.8,2,0,2.8c0.8,0.8,2,0.8,2.8,0l9.9-9.9h10.9
			L35,83.1H13.3L13.3,69.5z"/>
		<path class="st0" d="M79.8,1.9L78,39.4c0.1,1.1,1.1,1.9,2.2,1.7c0.8-0.1,1.5-0.7,1.7-1.6L83.6,4h10.2L96,49.1
			c0.1,1.1,0.9,1.9,2,1.9h0.1c1.1-0.1,1.9-1,1.9-2.1l-2.2-47c-0.1-1.1-0.9-1.9-2-1.9h-14C80.7,0,79.9,0.8,79.8,1.9z"/>
		<path class="st0" d="M101.3,56.5L52.1,30.6c-1-0.5-2.2-0.1-2.7,0.9c-0.1,0.3-0.2,0.6-0.2,0.8V42L27.5,30.6c-1-0.5-2.2-0.1-2.7,0.9
			c-0.1,0.3-0.2,0.6-0.2,0.9V42L2.9,30.6c-1-0.5-2.2-0.1-2.7,0.9C0.1,31.7,0,32,0,32.3v68.1c0,1.1,0.9,2,2,2h98.4c1.1,0,2-0.9,2-2
			V58.2C102.4,57.5,102,56.8,101.3,56.5z M89.1,98.4H72.7V69.5h16.4L89.1,98.4z M98.4,98.4h-5.4V67.5c0-1.1-0.9-2-2-2H70.7
			c-1.1,0-2,0.9-2,2v30.9H4V35.6L25.7,47c1,0.5,2.2,0.1,2.7-0.9c0.1-0.3,0.2-0.6,0.2-0.8v-9.7L50.3,47c1,0.5,2.2,0.1,2.7-0.9
			c0.1-0.3,0.2-0.6,0.2-0.8v-9.7l0.5,0.3l44.8,23.5V98.4z"/>
	</g>
</g>
</svg>
