<svg xmlns="http://www.w3.org/2000/svg" xmlns:xlink="http://www.w3.org/1999/xlink" viewBox="0 0 100 100"><defs><style>.cls-1{fill:none;}.cls-2{fill:#0267a9;}.cls-3{clip-path:url(#clip-path);}.cls-4{fill:#fff;stroke:#3581b9;stroke-miterlimit:10;stroke-width:0.7px;}</style><clipPath id="clip-path"><rect class="cls-1" x="20.08" y="32.14" width="54.5" height="43.07"/></clipPath></defs><title>icon-salud-product</title><g id="Layer_2" data-name="Layer 2"><g id="Layer_1-2" data-name="Layer 1"><circle class="cls-2" cx="50" cy="50" r="50"/><g class="cls-3"><path class="cls-4" d="M72.63,46.26a13.77,13.77,0,0,1-.72,4.39C69.68,60.74,50.38,73,49.55,73.49a1.49,1.49,0,0,1-.84.24,1.53,1.53,0,0,1-.84-.24A104.28,104.28,0,0,1,36.71,65.2a1.57,1.57,0,0,1-.18-2.2,1.59,1.59,0,0,1,2.22-.18,105,105,0,0,0,10,7.49c5.8-3.78,18.6-13.4,20.16-20.48a11.2,11.2,0,0,0,.59-3.55,11,11,0,0,0-5.72-9.68,11.28,11.28,0,0,0-13.84,2.62,1.63,1.63,0,0,1-2.42,0,11.3,11.3,0,0,0-13.84-2.63,11.06,11.06,0,0,0-5.72,9.68,10.77,10.77,0,0,0,.55,3.39,12.28,12.28,0,0,0,1.24,3.11h9.15L42,45.54a1.57,1.57,0,0,1,3,.26l2.31,9.78,3-4.89a1.57,1.57,0,0,1,1.35-.77h5.67a1.57,1.57,0,0,1,0,3.14h-4.8L48,60.45a1.55,1.55,0,0,1-1.33.75,1.19,1.19,0,0,1-.24,0A1.55,1.55,0,0,1,45.13,60L43,51.11l-1.66,3.84a1.57,1.57,0,0,1-1.44,1H21.64a1.57,1.57,0,0,1,0-3.14h4.61a13.69,13.69,0,0,1-.76-2.26,13.54,13.54,0,0,1-.67-4.24,14.18,14.18,0,0,1,7.36-12.42,14.5,14.5,0,0,1,16.56,2.09,14.48,14.48,0,0,1,16.55-2.09,14.18,14.18,0,0,1,7.36,12.42Zm0,0"/></g></g></g></svg>