<svg xmlns="http://www.w3.org/2000/svg" viewBox="0 0 100 100"><defs><style>.cls-1{fill:#0267a9;}.cls-2{fill:#fff;stroke:#3581b9;stroke-miterlimit:10;stroke-width:0.7px;}</style></defs><title>icon-industrial-product</title><g id="Layer_2" data-name="Layer 2"><g id="Layer_1-2" data-name="Layer 1"><circle class="cls-1" cx="50" cy="50" r="50"/><path class="cls-2" d="M30.76,56.55v8a1.06,1.06,0,0,0,1.06,1.06H54.64a1.06,1.06,0,0,0,1.06-1.06v-8a1.06,1.06,0,0,0-1.06-1.06H31.82a1.06,1.06,0,0,0-1.06,1.06Zm22.82,6.91h-8l5.85-5.85h2.16ZM32.89,57.61h8l-3,3a1.06,1.06,0,1,0,1.5,1.5l4.47-4.47h4.51l-5.85,5.85H32.89Zm0,0"/><path class="cls-2" d="M63,44.85a1.07,1.07,0,0,0,1.11-1l.78-16.09h4.35l1,20.42a1.06,1.06,0,0,0,1.06,1h.05a1.06,1.06,0,0,0,1-1.11l-1-21.43a1.06,1.06,0,0,0-1.06-1H63.92a1.07,1.07,0,0,0-1.06,1L62,43.73a1.06,1.06,0,0,0,1,1.11Zm0,0"/><path class="cls-2" d="M72.92,51.36,50.49,39.56a1.06,1.06,0,0,0-1.56.94v4.14l-9.66-5.08a1.06,1.06,0,0,0-1.56.94v4.14l-9.65-5.08a1.06,1.06,0,0,0-1.56.94v31a1.06,1.06,0,0,0,1.06,1.06H72.43a1.06,1.06,0,0,0,1.06-1.06V52.3a1.06,1.06,0,0,0-.57-.94ZM60,70.47V57.61h7.16V70.47Zm11.41,0H69.24V56.55a1.06,1.06,0,0,0-1.06-1.06H58.89a1.06,1.06,0,0,0-1.06,1.06V70.47H28.63V42.26l9.66,5.08a1.06,1.06,0,0,0,1.56-.94V42.26l9.65,5.08a1.06,1.06,0,0,0,1.56-.94V42.26l20.3,10.68Zm0,0"/></g></g></svg>