<svg xmlns="http://www.w3.org/2000/svg" viewBox="0 0 210 72.07"><defs><style>.cls-1{fill:#3d3d3c;}.cls-2{fill:#0267a9;}.cls-3{fill:#fff;}</style></defs><title>Asset 1</title><g id="Layer_2" data-name="Layer 2"><g id="Layer_1-2" data-name="Layer 1"><path class="cls-1" d="M33.8,42.24a16,16,0,0,1-5.08,12.29,16.3,16.3,0,0,1-12.34,4.9A16.09,16.09,0,0,1,4.73,54.24,16.73,16.73,0,0,1,0,42.3,16.9,16.9,0,0,1,5.13,30a15.74,15.74,0,0,1,12.23-5,16.29,16.29,0,0,1,12.11,5.83V14.27H33.8v28M16.44,55.1a11.3,11.3,0,0,0,9.23-3.75,12.55,12.55,0,0,0,3.69-9.46A12.77,12.77,0,0,0,25.67,33a11.35,11.35,0,0,0-8.59-3.69A12,12,0,0,0,8.13,33,12.38,12.38,0,0,0,4.38,42a12.8,12.8,0,0,0,3.46,9.11A11.69,11.69,0,0,0,16.44,55.1Z"/><rect class="cls-1" x="38.47" y="25.63" width="4.33" height="32.88"/><path class="cls-1" d="M94.94,58.5H90.38V38.32a10.11,10.11,0,0,0-2.19-6.52,7.11,7.11,0,0,0-5.77-2.71,9.26,9.26,0,0,0-6.29,2.36,7.58,7.58,0,0,0-2.6,5.88V58.5H68.93V37.34a7.44,7.44,0,0,0-2.65-5.88A9,9,0,0,0,60,29.09a7,7,0,0,0-5.71,2.71,10,10,0,0,0-2.13,6.52V58.5H47.64V38.84c0-4.1,1.15-7.44,3.52-9.92a12.72,12.72,0,0,1,8.65-4c4.79-.4,8.59,1.67,11.42,6.11,2.83-4.44,6.63-6.52,11.42-6.11a13,13,0,0,1,8.71,4,13.86,13.86,0,0,1,3.58,9.92V58.5"/><path class="cls-1" d="M132.89,47.72a16.68,16.68,0,0,1-6.23,8.42,17,17,0,0,1-9.75,3.17A16.33,16.33,0,0,1,105,54.41a16.62,16.62,0,0,1-5.31-12.05,16.64,16.64,0,0,1,5.19-12.69,16.11,16.11,0,0,1,12.75-5A17,17,0,0,1,129,30.13,15.71,15.71,0,0,1,133.7,41.2v2.36H104.17a12.11,12.11,0,0,0,4.21,8.19,12.6,12.6,0,0,0,8.71,3.17c5.19-.06,8.88-2.48,11.13-7.21h4.67m-3.52-8.19A12.87,12.87,0,0,0,125,32.09a12.8,12.8,0,0,0-20.88,7.44Z"/><path class="cls-2" d="M210,0,158.7,14.77l-.28.08L158,15l0,0a29.27,29.27,0,1,0,37,37L195,52,210,0"/><polyline class="cls-3" points="158.04 41.05 147.59 51.51 158.04 61.96 168.49 51.51 178.94 61.96 189.39 51.51 178.94 41.05 189.4 30.6 178.94 20.15 168.49 30.6 158.04 20.15 147.59 30.6 158.04 41.05"/><path class="cls-1" d="M43.33,17.12A2.72,2.72,0,1,1,40.6,14.4a2.72,2.72,0,0,1,2.72,2.72"/></g></g></svg>