<svg xmlns="http://www.w3.org/2000/svg" viewBox="0 0 36.23 36.23"><defs><style>.cls-1{fill:#0267a9;}</style></defs><title>icon-long</title><g id="Layer_2" data-name="Layer 2"><g id="Layer_1-2" data-name="Layer 1"><path class="cls-1" d="M3.22.18A.6.6,0,0,0,2.8,0H.61A.61.61,0,0,0,0,.61v35a.61.61,0,0,0,.61.61h35a.61.61,0,0,0,.61-.61V33.43a.61.61,0,0,0-.18-.43m-1,2H1.21V1.21H2.54L4.2,2.87l-.45.45a.61.61,0,1,0,.86.86l.45-.45L7,5.67l-.45.45A.61.61,0,1,0,7.42,7l.45-.45L9.81,8.48l-.45.45a.61.61,0,1,0,.86.86l.45-.45,1.95,1.95-1.37,1.38a.61.61,0,0,0,.86.86l1.38-1.38,1.94,1.95-.45.45a.61.61,0,0,0,.86.86l.45-.45,1.95,1.95-.45.45a.61.61,0,0,0,.86.86l.45-.45L21,19.69l-.45.45a.61.61,0,0,0,.86.86l.45-.45,1.95,1.95-1.37,1.38a.61.61,0,1,0,.86.86l1.38-1.37,1.94,1.94-.45.45a.61.61,0,1,0,.86.86l.45-.45,1.94,1.95-.45.45a.61.61,0,1,0,.86.86l.45-.45,1.95,1.95-.45.45a.61.61,0,0,0,.86.86l.45-.45L35,33.68ZM8.79,15a.61.61,0,0,0-.43-.18H7.55a.61.61,0,0,0-.61.61v13a.61.61,0,0,0,.61.61h13a.61.61,0,0,0,.61-.61v-.81a.61.61,0,0,0-.18-.43ZM8.15,27.81V16.12L19.85,27.81Zm0,0"/></g></g></svg>