<svg xmlns="http://www.w3.org/2000/svg" viewBox="0 0 34.64 34.64"><defs><style>.cls-1{fill:#0267a9;}</style></defs><title>icon-material</title><g id="Layer_2" data-name="Layer 2"><g id="Layer_1-2" data-name="Layer 1"><path class="cls-1" d="M34.09,0H.55A.55.55,0,0,0,0,.55V34.09a.55.55,0,0,0,.55.55H34.09a.55.55,0,0,0,.55-.55V.55A.55.55,0,0,0,34.09,0ZM12.35,27.95h-.07v0l.07,0Zm5,0A10.63,10.63,0,1,1,27.95,17.32,10.64,10.64,0,0,1,17.32,27.95Zm5,0v0h-.07l.07,0ZM5.59,16.77H1.1V12.28H5.59Zm1.11-4.48h0l0,.07ZM5.59,17.87v4.48H1.1V17.87Zm1.11,4.42,0,.07h0ZM22.29,6.7h.07v0l-.07,0Zm-10,0v0h.07l-.07,0Zm15.63,5.56h0v.07l0-.07Zm0,10v.07h0l0-.07Zm1.11-4.42h4.48v4.48H29.05Zm0-1.11V12.28h4.48v4.48Zm0-5.59V6.7h4.48v4.48Zm-1.11,0h-.64a11.82,11.82,0,0,0-3.85-3.85V6.7h4.48ZM23.46,5.59V1.11h4.48V5.59Zm-1.11,0H17.87V1.11h4.48Zm-5.59,0H12.28V1.11h4.48Zm-5.59,0H6.69V1.11h4.48Zm0,1.11v.63a11.82,11.82,0,0,0-3.85,3.85H6.69V6.7ZM5.59,11.18H1.1V6.7H5.59ZM1.1,23.46H5.59v4.48H1.1Zm5.59,0h.63a11.81,11.81,0,0,0,3.85,3.85v.63H6.69Zm4.48,5.59v4.48H6.69V29.05Zm1.11,0h4.48v4.48H12.28Zm5.59,0h4.48v4.48H17.87Zm5.59,0h4.48v4.48H23.46Zm0-1.11v-.63a11.81,11.81,0,0,0,3.85-3.85h.64v4.48Zm5.59-4.48h4.48v4.48H29.05ZM33.54,5.59H29.05V1.11h4.48ZM5.59,1.11V5.59H1.1V1.11ZM1.1,29.05H5.59v4.48H1.1Zm27.95,4.48V29.05h4.48v4.48Zm0,0"/><path class="cls-1" d="M24.33,22.36h-.86V17.87h2.83a.55.55,0,0,0,0-1.11H23.46V12.28h.87a.55.55,0,1,0,0-1.11h-.87v-.87a.55.55,0,0,0-1.11,0v.87H17.87V8.35a.55.55,0,0,0-1.11,0v2.83H12.28v-.87a.55.55,0,0,0-1.11,0v.87h-.86a.55.55,0,0,0,0,1.11h.86v4.48H8.35a.55.55,0,0,0,0,1.11h2.83v4.48h-.86a.55.55,0,1,0,0,1.11h.86v.87a.55.55,0,0,0,1.11,0v-.87h4.48v2.83a.55.55,0,0,0,1.11,0V23.46h4.48v.87a.55.55,0,0,0,1.11,0v-.87h.86a.55.55,0,0,0,0-1.11Zm-2-10.07v4.48H17.87V12.28Zm-10.07,0h4.48v4.48H12.28Zm0,10.07V17.87h4.48v4.48Zm5.59,0V17.87h4.48v4.48Zm0,0"/></g></g></svg>