<svg xmlns="http://www.w3.org/2000/svg" viewBox="0 0 36.73 36.73"><defs><style>.cls-1{fill:#0267a9;}</style></defs><title>icon-details</title><g id="Layer_2" data-name="Layer 2"><g id="Layer_1-2" data-name="Layer 1"><path class="cls-1" d="M32.37,25.43A14.9,14.9,0,1,0,11.29,4.36a14.61,14.61,0,0,0-2.24,18,.63.63,0,0,1-.09.75l-7.6,7.6c-1.51,1.51-1.87,3.63-.53,5l.23.23c1.34,1.34,3.46,1,5-.53l7.59-7.59a.64.64,0,0,1,.76-.1,14.61,14.61,0,0,0,18-2.24ZM14,22.68a11,11,0,1,1,15.57,0,11,11,0,0,1-15.57,0Zm0,0"/><path class="cls-1" d="M21.88,9.75c-4.5,0-8.14,4.49-8.14,5.22s3.65,5.22,8.14,5.22S30,15.7,30,15s-3.65-5.22-8.15-5.22Zm0,8.93A3.71,3.71,0,1,1,25.59,15a3.71,3.71,0,0,1-3.71,3.71Zm0,0"/><path class="cls-1" d="M23.77,15a1.89,1.89,0,1,1-1.89-1.89A1.89,1.89,0,0,1,23.77,15Zm0,0"/></g></g></svg>